<?xml version="1.0" encoding="utf-8"?>
<svg xmlns="http://www.w3.org/2000/svg" viewBox="140.9994 139.3375 156.226 191.8373" width="156.226px" height="191.837px">
  <path style="stroke: rgb(0, 0, 0); fill: rgb(8, 8, 8);" d="M 211.123 330.869 C 209.063 335.701 155.571 282.179 166.581 248.211 C 166.784 247.585 148.463 244.943 145.674 241.128 C 145.282 240.592 140.94 240.774 141 240.123 C 141.077 239.297 143.997 237.925 144.021 237.025 C 144.127 233.004 150.782 226.962 152.601 225.926 C 157.367 223.211 167.726 223.962 167.638 222.921 C 165.033 192.169 186.666 159.613 213.71 139.361 C 215.56 137.975 195.804 198.402 206.617 216.409 C 206.68 216.515 240.155 201.184 292.785 193.998 C 294.779 193.726 231.872 216.082 232.553 232.328 C 233.256 249.114 300.8 262.998 297.077 263.222 C 239.42 266.689 210.056 249.033 208.642 250.954 C 191.194 274.663 212.355 327.979 211.123 330.869 Z" transform="matrix(0.9999999999999999, 0, 0, 0.9999999999999999, -1.4210854715202004e-14, 1.4210854715202004e-14)"/>
</svg>